<svg id="svg" version="1.1" width="400" height="219.94459833795014" viewBox="0 0 400 219.94459833795014" xmlns="http://www.w3.org/2000/svg" xmlns:xlink="http://www.w3.org/1999/xlink" ><g id="svgg"><path id="path0" d="M170.187 4.200 C 169.824 4.311,167.497 4.695,165.017 5.054 C 160.280 5.739,156.753 6.267,151.815 7.031 C 150.182 7.283,148.102 7.578,147.195 7.687 C 145.603 7.876,144.163 8.097,138.504 9.020 C 137.052 9.257,134.774 9.606,133.443 9.796 C 132.112 9.986,130.231 10.285,129.263 10.461 C 128.295 10.636,126.463 10.884,125.193 11.011 C 123.922 11.138,122.140 11.432,121.232 11.664 C 119.175 12.188,115.569 12.761,114.322 12.761 C 113.805 12.761,112.895 12.911,112.301 13.094 C 111.707 13.277,110.479 13.527,109.571 13.649 C 108.663 13.771,107.030 14.012,105.941 14.186 C 101.541 14.887,98.110 15.404,95.710 15.728 C 94.318 15.916,92.437 16.273,91.529 16.522 C 90.622 16.770,89.186 17.056,88.339 17.157 C 87.492 17.259,85.066 17.598,82.948 17.912 C 80.831 18.226,77.662 18.686,75.908 18.934 C 74.153 19.182,71.876 19.536,70.847 19.720 C 69.818 19.904,68.146 20.142,67.130 20.248 C 63.336 20.645,61.519 22.324,58.086 28.600 C 57.541 29.596,56.313 31.613,55.356 33.082 C 53.136 36.491,52.500 37.525,48.842 43.674 C 45.481 49.323,42.447 54.276,38.733 60.176 C 37.362 62.354,34.623 66.836,32.646 70.135 C 30.668 73.434,28.471 76.998,27.763 78.056 C 27.055 79.113,26.046 80.721,25.521 81.628 C 24.996 82.536,22.937 85.853,20.947 88.999 C 16.949 95.317,13.390 101.083,11.100 104.950 C 10.275 106.342,8.996 108.421,8.257 109.571 C 3.721 116.623,3.713 116.502,9.143 123.982 C 10.109 125.314,11.978 128.036,13.296 130.033 C 14.615 132.030,16.048 134.187,16.482 134.827 C 16.917 135.466,17.866 136.919,18.592 138.055 C 21.111 141.997,26.079 149.445,27.381 151.230 C 28.622 152.931,34.483 161.696,37.661 166.602 C 38.468 167.847,40.420 170.748,41.997 173.047 C 43.575 175.347,45.803 178.614,46.948 180.308 C 48.093 182.002,50.540 185.616,52.386 188.339 C 57.564 195.976,57.928 196.519,58.671 197.692 C 59.053 198.296,59.924 199.582,60.606 200.550 C 61.287 201.518,63.283 204.459,65.040 207.085 C 70.339 215.004,70.725 215.225,77.118 214.009 C 79.104 213.631,83.816 212.926,90.649 211.984 C 92.041 211.792,93.690 211.492,94.313 211.318 C 94.937 211.144,95.809 211.001,96.251 211.001 C 96.693 211.001,98.015 210.812,99.188 210.581 C 101.885 210.049,105.148 209.556,108.801 209.126 C 110.374 208.941,112.948 208.598,114.521 208.365 C 116.095 208.131,118.375 207.840,119.588 207.718 C 120.802 207.596,122.238 207.337,122.779 207.143 C 123.320 206.950,124.653 206.700,125.743 206.588 C 126.832 206.477,128.168 206.283,128.713 206.159 C 129.257 206.035,130.396 205.842,131.243 205.731 C 135.732 205.142,144.321 203.771,144.604 203.598 C 144.692 203.545,145.930 203.361,147.354 203.189 C 148.779 203.017,151.529 202.677,153.465 202.432 C 155.402 202.188,158.273 201.834,159.846 201.646 C 161.419 201.458,163.795 201.115,165.127 200.883 C 169.269 200.162,171.838 199.780,172.567 199.777 C 172.952 199.776,173.812 199.625,174.477 199.443 C 175.143 199.260,176.660 199.022,177.848 198.914 C 182.437 198.495,181.868 199.180,192.652 181.078 C 194.418 178.113,196.383 174.895,197.018 173.927 C 198.919 171.031,201.210 167.399,201.875 166.227 C 202.219 165.622,202.965 164.433,203.535 163.586 C 204.104 162.739,205.191 160.957,205.949 159.626 C 206.708 158.295,207.692 156.661,208.136 155.996 C 208.580 155.330,209.276 154.191,209.683 153.465 C 211.343 150.500,215.843 143.030,216.772 141.694 C 217.981 139.957,221.226 134.614,222.718 131.903 C 223.317 130.814,224.128 129.477,224.520 128.933 C 225.314 127.830,229.117 121.662,231.914 116.942 C 232.918 115.248,234.881 112.079,236.277 109.901 C 240.873 102.729,240.902 101.944,236.776 96.040 C 234.789 93.194,228.104 83.186,224.761 78.049 C 223.797 76.569,222.126 74.121,221.048 72.609 C 219.226 70.056,217.060 66.641,216.199 64.964 C 215.086 62.797,214.124 63.234,211.959 66.887 C 207.673 74.120,207.169 72.080,216.690 86.029 C 218.383 88.509,220.602 91.829,221.621 93.407 C 222.641 94.984,224.267 97.318,225.237 98.593 C 227.788 101.951,227.800 102.408,225.420 106.051 C 224.669 107.200,223.273 109.477,222.318 111.111 C 221.363 112.745,219.977 115.022,219.238 116.172 C 218.499 117.321,217.170 119.499,216.285 121.012 C 215.400 122.525,213.667 125.396,212.433 127.393 C 211.199 129.389,209.763 131.815,209.242 132.783 C 208.720 133.751,207.106 136.425,205.655 138.724 C 204.203 141.023,202.598 143.597,202.088 144.444 C 201.577 145.292,200.339 147.321,199.335 148.955 C 198.332 150.589,196.742 153.212,195.802 154.785 C 193.853 158.050,193.326 158.899,190.137 163.916 C 188.868 165.913,187.185 168.636,186.399 169.967 C 185.612 171.298,184.348 173.390,183.589 174.615 C 182.830 175.841,181.709 177.841,181.096 179.061 C 179.246 182.749,177.851 182.730,175.807 178.988 C 175.410 178.262,174.177 176.381,173.066 174.807 C 171.955 173.234,170.709 171.403,170.297 170.737 C 168.961 168.577,166.329 164.550,163.719 160.675 C 162.315 158.589,160.671 156.105,160.066 155.154 C 159.461 154.203,158.262 152.444,157.401 151.245 C 155.183 148.153,152.410 143.752,151.346 141.633 C 150.433 139.815,148.222 136.216,146.383 133.553 C 145.369 132.085,142.815 128.309,139.164 122.882 C 138.024 121.188,136.320 118.719,135.377 117.394 C 134.435 116.070,133.284 114.337,132.820 113.544 C 132.356 112.750,131.798 111.903,131.580 111.661 C 131.150 111.184,129.946 109.452,127.063 105.171 C 126.045 103.658,124.710 101.828,124.096 101.103 C 122.082 98.724,122.144 97.627,124.480 94.312 C 126.288 91.745,127.041 90.586,128.937 87.452 C 129.745 86.118,131.350 83.593,132.505 81.842 C 133.660 80.091,136.115 76.232,137.961 73.267 C 139.807 70.303,142.825 65.600,144.668 62.816 C 146.510 60.033,148.887 56.370,149.950 54.675 C 152.737 50.232,154.539 47.430,155.843 45.515 C 156.471 44.592,157.926 42.318,159.076 40.463 C 160.226 38.608,161.752 36.195,162.467 35.102 C 166.322 29.212,169.325 24.394,169.809 23.322 C 171.357 19.900,172.948 20.016,175.169 23.716 C 175.801 24.770,177.523 27.464,178.993 29.703 C 180.464 31.942,181.930 34.235,182.251 34.799 C 184.046 37.957,185.409 37.846,186.925 34.418 C 187.202 33.792,187.768 32.747,188.184 32.096 C 190.617 28.286,190.808 27.040,189.269 25.028 C 188.782 24.392,187.713 22.833,186.892 21.562 C 186.071 20.292,184.888 18.559,184.263 17.712 C 183.638 16.865,181.706 14.046,179.970 11.448 C 175.223 4.346,173.612 3.153,170.187 4.200 M217.765 9.555 C 216.914 9.859,216.386 10.204,215.886 10.781 C 215.291 11.469,213.633 14.110,212.960 15.443 C 212.575 16.206,211.863 17.474,211.379 18.261 C 210.894 19.048,209.834 20.831,209.024 22.222 C 208.213 23.614,207.106 25.495,206.563 26.403 C 205.553 28.094,204.059 30.688,202.635 33.223 C 201.884 34.562,199.761 38.127,197.134 42.464 C 196.510 43.493,195.240 45.721,194.310 47.415 C 193.380 49.109,192.167 51.238,191.614 52.145 C 191.062 53.053,190.209 54.488,189.720 55.336 C 189.230 56.183,188.137 58.064,187.290 59.516 C 186.443 60.968,185.156 63.196,184.431 64.466 C 183.706 65.737,182.047 68.608,180.745 70.847 C 179.442 73.086,177.977 75.611,177.488 76.458 C 176.509 78.156,174.313 81.885,173.084 83.938 C 172.649 84.664,171.902 86.008,171.422 86.925 C 170.943 87.841,170.089 89.266,169.525 90.090 C 168.960 90.915,168.049 92.442,167.499 93.484 C 166.284 95.787,165.270 97.590,162.572 102.244 C 157.825 110.433,157.781 109.618,163.433 117.843 C 164.922 120.010,166.649 122.525,167.271 123.432 C 168.321 124.965,171.045 128.788,176.675 136.634 C 179.714 140.868,180.891 142.655,181.715 144.289 C 182.936 146.707,184.223 146.507,185.643 143.678 C 186.157 142.654,187.118 140.922,187.778 139.830 C 189.881 136.350,189.905 136.450,185.545 130.317 C 183.756 127.801,181.269 124.208,180.018 122.332 C 178.767 120.457,177.157 118.177,176.441 117.268 C 171.190 110.602,170.881 109.640,172.969 106.460 C 173.713 105.327,174.735 103.658,175.239 102.750 C 176.834 99.884,178.247 97.414,179.269 95.710 C 180.434 93.767,184.799 86.203,186.571 83.058 C 187.252 81.848,188.485 79.719,189.310 78.328 C 190.893 75.656,194.393 69.585,196.476 65.897 C 197.160 64.686,198.465 62.508,199.377 61.056 C 200.289 59.604,201.431 57.723,201.916 56.876 C 203.357 54.354,207.035 47.985,208.142 46.095 C 208.708 45.127,209.798 43.196,210.564 41.804 C 211.329 40.413,212.961 37.591,214.190 35.534 C 215.419 33.476,216.992 30.704,217.686 29.373 C 219.900 25.125,221.183 25.002,223.417 28.823 C 224.586 30.822,229.420 37.559,235.416 45.545 C 236.007 46.331,237.420 48.212,238.556 49.725 C 239.693 51.238,241.526 53.762,242.630 55.336 C 243.734 56.909,245.478 59.334,246.504 60.726 C 247.531 62.118,249.245 64.485,250.313 65.987 C 251.381 67.488,252.858 69.518,253.594 70.497 C 254.331 71.476,255.610 73.267,256.436 74.477 C 258.070 76.868,260.273 79.911,263.605 84.378 C 264.778 85.952,266.269 87.994,266.917 88.918 C 267.566 89.841,268.714 91.376,269.469 92.328 C 277.275 102.179,277.187 101.925,274.329 106.381 C 273.168 108.191,269.368 114.745,268.653 116.172 C 268.379 116.716,267.584 117.858,266.886 118.709 C 265.539 120.349,263.813 123.072,261.939 126.513 C 261.313 127.662,260.079 129.840,259.198 131.353 C 257.427 134.390,255.626 137.520,254.006 140.374 C 253.422 141.403,252.110 143.625,251.090 145.312 C 250.071 147.000,248.486 149.722,247.568 151.363 C 245.991 154.184,243.393 158.602,241.738 161.276 C 241.326 161.942,240.446 163.476,239.781 164.686 C 238.201 167.561,235.680 171.910,234.232 174.257 C 232.058 177.781,230.868 179.871,229.364 182.809 C 226.695 188.021,225.716 188.274,223.441 184.337 C 222.860 183.331,221.178 180.875,219.705 178.878 C 218.231 176.881,216.664 174.684,216.224 173.994 C 214.577 171.419,213.449 171.498,212.000 174.290 C 211.538 175.180,210.619 176.836,209.957 177.970 C 207.690 181.857,207.394 181.126,215.949 192.739 C 217.776 195.220,219.734 198.000,220.299 198.917 C 222.903 203.143,224.201 203.881,229.783 204.309 C 234.989 204.708,238.095 205.005,238.504 205.145 C 238.848 205.262,243.633 205.806,247.415 206.158 C 248.625 206.271,251.298 206.566,253.355 206.814 C 255.413 207.061,258.135 207.363,259.406 207.485 C 260.677 207.606,262.508 207.804,263.476 207.924 C 264.444 208.044,266.771 208.242,268.647 208.364 C 270.523 208.485,272.800 208.672,273.707 208.778 C 278.269 209.312,281.519 209.714,283.608 210.005 C 284.879 210.181,287.057 210.432,288.449 210.561 C 289.840 210.690,291.870 210.888,292.959 211.002 C 294.048 211.115,296.128 211.316,297.580 211.447 C 299.032 211.578,302.101 211.879,304.400 212.116 C 306.700 212.353,311.205 212.790,314.411 213.088 C 324.403 214.016,325.211 214.104,328.761 214.650 C 335.926 215.751,337.122 215.196,340.467 209.215 C 341.305 207.716,342.436 205.748,342.981 204.840 C 343.526 203.933,345.125 201.161,346.536 198.680 C 350.398 191.887,355.028 183.827,356.204 181.848 C 357.697 179.337,358.991 177.071,360.161 174.917 C 360.719 173.889,361.626 172.354,362.176 171.507 C 362.725 170.660,363.558 169.274,364.027 168.427 C 364.496 167.580,365.388 166.045,366.010 165.017 C 366.632 163.988,367.717 162.107,368.422 160.836 C 369.126 159.565,370.665 156.892,371.840 154.895 C 373.016 152.899,374.897 149.681,376.021 147.745 C 377.145 145.809,378.878 142.838,379.871 141.144 C 382.047 137.435,383.991 134.029,385.214 131.786 C 385.710 130.874,387.335 128.079,388.823 125.575 C 396.329 112.946,396.212 114.873,389.986 106.430 C 387.753 103.402,386.085 101.044,384.345 98.460 C 382.491 95.707,378.996 90.785,376.920 88.005 C 375.879 86.611,374.186 84.246,373.157 82.751 C 369.527 77.472,366.086 72.543,365.482 71.755 C 364.423 70.375,357.624 60.816,353.959 55.556 C 351.006 51.316,349.184 48.841,347.815 47.209 C 347.111 46.370,345.304 43.895,343.799 41.709 C 342.294 39.523,340.614 37.090,340.065 36.304 C 339.516 35.517,338.298 33.735,337.360 32.343 C 334.896 28.692,331.200 23.604,330.273 22.587 C 329.046 21.242,327.830 20.930,322.002 20.462 C 320.429 20.335,318.053 20.091,316.722 19.918 C 309.878 19.031,301.524 18.134,298.130 17.921 C 296.980 17.849,294.950 17.653,293.619 17.486 C 290.207 17.057,285.727 16.570,282.508 16.278 C 280.996 16.141,279.015 15.895,278.108 15.731 C 277.200 15.568,274.824 15.277,272.827 15.085 C 270.831 14.893,267.910 14.594,266.337 14.421 C 264.763 14.247,262.288 13.997,260.836 13.865 C 256.115 13.436,253.842 13.167,251.181 12.725 C 249.743 12.487,247.564 12.203,246.340 12.095 C 245.116 11.988,242.481 11.697,240.484 11.450 C 238.487 11.203,235.319 10.849,233.443 10.663 C 231.568 10.478,229.191 10.185,228.163 10.014 C 223.709 9.271,219.128 9.069,217.765 9.555 M158.936 17.618 C 159.833 18.323,159.734 19.412,158.648 20.792 C 157.800 21.870,153.400 28.362,152.129 30.411 C 151.775 30.982,150.685 32.566,149.708 33.931 C 148.730 35.297,147.398 37.305,146.748 38.394 C 146.098 39.483,144.468 42.057,143.124 44.114 C 141.781 46.172,139.275 50.207,137.554 53.082 C 135.834 55.956,133.507 59.719,132.385 61.442 C 131.262 63.166,129.809 65.468,129.157 66.557 C 128.504 67.646,127.688 68.933,127.344 69.417 C 126.003 71.303,121.233 78.614,119.721 81.100 C 115.928 87.339,112.001 93.059,111.178 93.544 C 110.535 93.923,108.224 94.392,104.290 94.940 C 103.020 95.118,100.495 95.513,98.680 95.818 C 96.865 96.124,93.746 96.627,91.749 96.936 C 89.752 97.245,87.160 97.739,85.989 98.034 C 84.817 98.329,83.479 98.570,83.014 98.570 C 82.549 98.570,81.478 98.757,80.634 98.985 C 79.789 99.213,78.454 99.468,77.668 99.552 C 76.881 99.635,75.644 99.836,74.917 99.997 C 74.191 100.159,72.013 100.501,70.077 100.756 C 65.167 101.404,62.763 101.792,58.196 102.676 C 56.018 103.097,53.394 103.576,52.365 103.740 C 51.337 103.904,49.307 104.284,47.855 104.585 C 46.403 104.885,43.977 105.298,42.464 105.502 C 40.952 105.706,38.278 106.113,36.524 106.405 C 34.769 106.698,32.640 107.036,31.793 107.155 C 30.946 107.275,28.955 107.682,27.368 108.059 C 23.793 108.908,23.255 108.789,23.147 107.127 C 23.088 106.230,23.198 105.947,24.125 104.599 C 28.035 98.915,34.943 88.232,36.046 86.164 C 36.937 84.493,38.408 82.054,41.372 77.338 C 42.056 76.249,43.293 74.219,44.120 72.827 C 44.947 71.436,46.166 69.455,46.830 68.427 C 47.494 67.398,48.502 65.765,49.071 64.796 C 50.292 62.716,54.078 56.684,55.036 55.292 C 55.631 54.427,62.056 43.869,63.914 40.704 C 68.817 32.350,70.110 30.886,72.787 30.665 C 74.092 30.557,77.620 29.970,81.188 29.266 C 84.087 28.695,86.927 28.214,88.966 27.947 C 89.917 27.823,90.780 27.668,90.885 27.603 C 90.989 27.538,92.588 27.300,94.437 27.072 C 98.800 26.536,104.953 25.585,106.491 25.209 C 107.156 25.046,108.839 24.746,110.231 24.544 C 111.623 24.341,113.553 24.027,114.521 23.847 C 115.490 23.666,118.888 23.179,122.073 22.764 C 125.258 22.348,127.957 21.952,128.069 21.882 C 128.182 21.812,129.190 21.661,130.309 21.546 C 131.428 21.431,133.435 21.093,134.769 20.794 C 138.485 19.963,141.832 19.435,146.535 18.940 C 152.251 18.339,153.855 18.102,155.556 17.608 C 157.438 17.062,158.232 17.064,158.936 17.618 M236.634 21.760 C 237.602 21.988,239.285 22.288,240.374 22.426 C 245.827 23.117,247.595 23.381,249.615 23.805 C 250.825 24.059,252.607 24.340,253.575 24.430 C 254.543 24.519,256.474 24.701,257.866 24.834 C 259.257 24.966,262.475 25.233,265.017 25.427 C 267.558 25.620,270.825 25.925,272.277 26.104 C 273.729 26.282,275.809 26.516,276.898 26.622 C 277.987 26.729,279.656 26.920,280.608 27.047 C 281.559 27.174,283.688 27.430,285.338 27.616 C 286.989 27.801,289.329 28.094,290.539 28.265 C 292.764 28.580,295.705 28.854,301.320 29.269 C 303.014 29.394,305.242 29.636,306.271 29.807 C 307.299 29.979,309.131 30.233,310.341 30.372 C 311.551 30.511,312.591 30.656,312.651 30.692 C 312.712 30.729,314.642 30.876,316.942 31.019 C 323.114 31.402,323.228 31.456,325.790 35.183 C 326.588 36.344,327.903 38.185,328.713 39.274 C 329.522 40.363,331.461 43.073,333.024 45.297 C 334.586 47.520,336.441 50.144,337.147 51.127 C 337.853 52.111,338.885 53.608,339.441 54.455 C 339.997 55.303,341.704 57.679,343.235 59.736 C 344.766 61.793,346.432 64.070,346.938 64.796 C 347.444 65.523,348.569 67.107,349.438 68.317 C 350.894 70.344,352.234 72.282,357.301 79.687 C 359.189 82.445,361.128 85.089,363.730 88.449 C 364.526 89.477,365.803 91.260,366.567 92.409 C 368.882 95.896,372.273 100.566,373.730 102.276 C 377.009 106.123,376.161 108.643,372.165 106.930 C 371.124 106.483,369.388 106.233,361.386 105.377 C 360.176 105.247,357.849 104.958,356.216 104.734 C 354.582 104.511,352.156 104.216,350.825 104.080 C 346.046 103.591,344.190 103.378,342.024 103.069 C 340.814 102.897,338.537 102.598,336.964 102.404 C 335.391 102.211,333.212 101.926,332.123 101.771 C 327.071 101.052,321.042 100.314,312.321 99.349 C 310.748 99.174,307.481 98.784,305.061 98.482 C 302.640 98.179,299.472 97.825,298.020 97.695 C 285.509 96.574,286.091 96.823,282.051 90.869 C 280.539 88.641,278.548 85.853,273.957 79.538 C 273.254 78.570,272.109 76.986,271.413 76.018 C 270.717 75.050,269.142 72.987,267.912 71.434 C 266.683 69.881,264.389 66.789,262.816 64.563 C 257.731 57.365,255.201 53.847,253.268 51.288 C 249.185 45.880,248.321 44.704,247.028 42.794 C 246.291 41.705,245.125 40.072,244.439 39.164 C 242.802 37.002,239.187 31.933,237.476 29.402 C 236.729 28.297,235.520 26.724,234.789 25.907 C 232.844 23.731,232.536 22.134,233.953 21.564 C 234.624 21.293,234.666 21.296,236.634 21.760 M113.623 105.556 C 114.098 105.889,114.881 106.755,115.365 107.481 C 115.848 108.207,116.809 109.593,117.501 110.561 C 118.192 111.529,119.474 113.509,120.349 114.961 C 121.224 116.414,122.427 118.261,123.022 119.067 C 123.617 119.872,124.677 121.665,125.377 123.051 C 126.663 125.595,126.967 126.069,131.903 133.223 C 133.406 135.402,135.407 138.322,136.349 139.714 C 137.291 141.106,138.691 143.121,139.460 144.193 C 140.920 146.229,145.135 152.431,146.638 154.755 C 147.119 155.498,148.901 158.252,150.599 160.874 C 152.296 163.497,154.046 166.220,154.486 166.925 C 155.260 168.163,160.021 175.217,163.592 180.414 C 164.547 181.804,165.946 183.706,166.701 184.641 C 169.591 188.220,168.989 189.879,164.801 189.879 C 163.010 189.879,159.864 190.306,157.434 190.879 C 156.703 191.052,155.710 191.196,155.226 191.200 C 154.741 191.204,153.652 191.356,152.805 191.539 C 151.958 191.721,149.427 192.064,147.180 192.301 C 144.933 192.537,141.715 192.939,140.029 193.192 C 138.343 193.446,136.272 193.745,135.426 193.857 C 133.610 194.097,130.925 194.613,128.944 195.102 C 128.163 195.295,126.876 195.521,126.083 195.604 C 124.463 195.775,120.248 196.336,116.942 196.820 C 115.732 196.998,114.444 197.142,114.081 197.141 C 113.718 197.140,112.580 197.292,111.551 197.480 C 106.793 198.345,104.655 198.700,102.310 199.013 C 99.525 199.385,95.164 200.012,90.759 200.674 C 89.186 200.911,86.711 201.254,85.259 201.437 C 83.806 201.620,81.777 202.027,80.748 202.343 C 76.462 203.656,75.454 203.158,72.011 198.020 C 70.038 195.077,65.432 188.037,64.776 186.962 C 63.841 185.430,62.439 183.327,58.654 177.778 C 52.764 169.142,40.873 151.461,39.274 148.962 C 38.427 147.638,37.098 145.634,36.320 144.509 C 35.542 143.385,32.486 138.850,29.527 134.433 C 26.569 130.017,23.651 125.809,23.042 125.083 C 20.281 121.788,20.502 119.879,23.677 119.601 C 24.510 119.528,26.133 119.324,27.283 119.148 C 28.432 118.971,29.868 118.765,30.473 118.690 C 31.078 118.615,32.266 118.369,33.113 118.144 C 33.960 117.918,35.297 117.665,36.084 117.580 C 36.870 117.496,37.897 117.294,38.366 117.130 C 38.836 116.966,39.680 116.832,40.244 116.832 C 40.807 116.832,41.810 116.681,42.471 116.497 C 43.133 116.312,45.011 115.971,46.645 115.737 C 48.278 115.504,50.110 115.218,50.715 115.102 C 51.320 114.985,52.904 114.729,54.235 114.532 C 56.494 114.197,59.501 113.703,63.696 112.977 C 64.664 112.810,66.100 112.618,66.887 112.550 C 67.673 112.483,69.703 112.135,71.397 111.777 C 73.091 111.420,75.715 110.920,77.228 110.666 C 78.740 110.412,81.831 109.865,84.097 109.451 C 86.362 109.036,89.035 108.597,90.037 108.474 C 93.637 108.032,100.268 106.952,102.750 106.403 C 110.969 104.586,112.113 104.497,113.623 105.556 M290.350 107.687 C 291.301 107.861,294.158 108.210,296.700 108.463 C 301.093 108.900,304.906 109.421,308.801 110.117 C 309.769 110.289,311.898 110.536,313.531 110.664 C 315.165 110.793,317.690 111.039,319.142 111.211 C 322.992 111.669,333.379 112.993,337.074 113.497 C 338.828 113.737,341.353 114.049,342.684 114.190 C 344.015 114.332,345.847 114.581,346.755 114.744 C 347.662 114.907,349.395 115.102,350.605 115.178 C 351.815 115.255,353.746 115.456,354.895 115.626 C 357.483 116.008,361.673 116.526,365.511 116.938 C 367.115 117.110,369.615 117.399,371.067 117.580 C 372.519 117.761,374.557 117.971,375.597 118.047 C 379.399 118.325,379.970 119.622,377.668 122.748 C 376.549 124.268,373.507 129.488,366.946 141.144 C 365.856 143.080,364.549 145.308,364.040 146.095 C 363.532 146.881,362.040 149.406,360.724 151.705 C 359.409 154.004,357.470 157.329,356.417 159.093 C 355.363 160.857,354.229 162.837,353.897 163.493 C 353.564 164.150,352.677 165.726,351.925 166.997 C 348.279 173.159,346.897 175.531,345.001 178.878 C 343.870 180.875,342.580 183.102,342.133 183.828 C 341.687 184.554,340.644 186.386,339.814 187.899 C 338.985 189.411,337.155 192.580,335.747 194.939 C 334.339 197.299,332.901 199.760,332.552 200.408 C 331.108 203.091,329.574 203.795,326.415 203.226 C 325.319 203.029,322.888 202.761,321.012 202.632 C 319.136 202.503,316.711 202.310,315.622 202.205 C 314.532 202.099,310.968 201.758,307.701 201.449 C 304.433 201.139,300.919 200.789,299.890 200.671 C 298.861 200.553,297.079 200.350,295.930 200.220 C 294.780 200.090,293.177 199.889,292.367 199.772 C 291.557 199.655,290.473 199.560,289.958 199.560 C 289.443 199.560,288.225 199.462,287.250 199.343 C 286.276 199.224,284.488 199.025,283.278 198.902 C 282.068 198.778,278.751 198.436,275.908 198.142 C 273.064 197.847,269.598 197.500,268.207 197.369 C 261.910 196.779,260.965 196.682,259.516 196.478 C 258.669 196.360,256.887 196.162,255.556 196.038 C 252.917 195.794,248.371 195.273,245.765 194.916 C 244.857 194.791,242.733 194.631,241.045 194.560 C 236.361 194.363,235.767 193.256,238.299 189.439 C 239.212 188.063,240.685 185.545,246.541 175.358 C 247.480 173.724,248.518 171.991,248.847 171.507 C 249.176 171.023,249.721 170.083,250.056 169.417 C 250.392 168.751,251.130 167.514,251.695 166.667 C 252.646 165.243,254.744 161.664,257.307 157.096 C 257.884 156.067,258.921 154.433,259.611 153.465 C 261.890 150.269,262.656 149.093,264.194 146.425 C 265.031 144.972,266.585 142.349,267.646 140.594 C 268.708 138.839,270.072 136.414,270.679 135.204 C 271.285 133.993,271.956 132.756,272.169 132.453 C 272.382 132.151,273.348 130.468,274.314 128.713 C 275.281 126.958,276.718 124.384,277.508 122.992 C 278.298 121.601,279.375 119.685,279.901 118.735 C 280.428 117.786,281.361 116.251,281.975 115.325 C 282.590 114.399,283.670 112.580,284.375 111.283 C 285.800 108.660,286.258 108.132,287.493 107.692 C 288.551 107.314,288.314 107.315,290.350 107.687 " stroke="none" fill="#ffffff" fill-rule="evenodd"></path><path id="path1" d="M0.000 110.011 L 0.000 220.022 200.000 220.022 L 400.000 220.022 400.000 110.011 L 400.000 0.000 200.000 0.000 L 0.000 0.000 0.000 110.011 M173.973 4.390 C 175.456 5.064,176.611 6.423,179.970 11.448 C 181.706 14.046,183.638 16.865,184.263 17.712 C 184.888 18.559,186.071 20.292,186.892 21.562 C 187.713 22.833,188.782 24.392,189.269 25.028 C 190.808 27.040,190.617 28.286,188.184 32.096 C 187.768 32.747,187.202 33.792,186.925 34.418 C 185.409 37.846,184.046 37.957,182.251 34.799 C 181.930 34.235,180.464 31.942,178.993 29.703 C 177.523 27.464,175.801 24.770,175.169 23.716 C 172.948 20.016,171.357 19.900,169.809 23.322 C 169.325 24.394,166.322 29.212,162.467 35.102 C 161.752 36.195,160.226 38.608,159.076 40.463 C 157.926 42.318,156.471 44.592,155.843 45.515 C 154.539 47.430,152.737 50.232,149.950 54.675 C 148.887 56.370,146.510 60.033,144.668 62.816 C 142.825 65.600,139.807 70.303,137.961 73.267 C 136.115 76.232,133.660 80.091,132.505 81.842 C 131.350 83.593,129.745 86.118,128.937 87.452 C 127.041 90.586,126.288 91.745,124.480 94.312 C 122.144 97.627,122.082 98.724,124.096 101.103 C 124.710 101.828,126.045 103.658,127.063 105.171 C 129.946 109.452,131.150 111.184,131.580 111.661 C 131.798 111.903,132.356 112.750,132.820 113.544 C 133.284 114.337,134.435 116.070,135.377 117.394 C 136.320 118.719,138.024 121.188,139.164 122.882 C 142.815 128.309,145.369 132.085,146.383 133.553 C 148.222 136.216,150.433 139.815,151.346 141.633 C 152.410 143.752,155.183 148.153,157.401 151.245 C 158.262 152.444,159.461 154.203,160.066 155.154 C 160.671 156.105,162.315 158.589,163.719 160.675 C 166.329 164.550,168.961 168.577,170.297 170.737 C 170.709 171.403,171.955 173.234,173.066 174.807 C 174.177 176.381,175.410 178.262,175.807 178.988 C 177.851 182.730,179.246 182.749,181.096 179.061 C 181.709 177.841,182.830 175.841,183.589 174.615 C 184.348 173.390,185.612 171.298,186.399 169.967 C 187.185 168.636,188.868 165.913,190.137 163.916 C 193.326 158.899,193.853 158.050,195.802 154.785 C 196.742 153.212,198.332 150.589,199.335 148.955 C 200.339 147.321,201.577 145.292,202.088 144.444 C 202.598 143.597,204.203 141.023,205.655 138.724 C 207.106 136.425,208.720 133.751,209.242 132.783 C 209.763 131.815,211.199 129.389,212.433 127.393 C 213.667 125.396,215.400 122.525,216.285 121.012 C 217.170 119.499,218.499 117.321,219.238 116.172 C 219.977 115.022,221.363 112.745,222.318 111.111 C 223.273 109.477,224.669 107.200,225.420 106.051 C 227.800 102.408,227.788 101.951,225.237 98.593 C 224.267 97.318,222.641 94.984,221.621 93.407 C 220.602 91.829,218.383 88.509,216.690 86.029 C 207.169 72.080,207.673 74.120,211.959 66.887 C 214.124 63.234,215.086 62.797,216.199 64.964 C 217.060 66.641,219.226 70.056,221.048 72.609 C 222.126 74.121,223.797 76.569,224.761 78.049 C 228.104 83.186,234.789 93.194,236.776 96.040 C 240.902 101.944,240.873 102.729,236.277 109.901 C 234.881 112.079,232.918 115.248,231.914 116.942 C 229.117 121.662,225.314 127.830,224.520 128.933 C 224.128 129.477,223.317 130.814,222.718 131.903 C 221.226 134.614,217.981 139.957,216.772 141.694 C 215.843 143.030,211.343 150.500,209.683 153.465 C 209.276 154.191,208.580 155.330,208.136 155.996 C 207.692 156.661,206.708 158.295,205.949 159.626 C 205.191 160.957,204.104 162.739,203.535 163.586 C 202.965 164.433,202.219 165.622,201.875 166.227 C 201.210 167.399,198.919 171.031,197.018 173.927 C 196.383 174.895,194.418 178.113,192.652 181.078 C 181.868 199.180,182.437 198.495,177.848 198.914 C 176.660 199.022,175.143 199.260,174.477 199.443 C 173.812 199.625,172.952 199.776,172.567 199.777 C 171.838 199.780,169.269 200.162,165.127 200.883 C 163.795 201.115,161.419 201.458,159.846 201.646 C 158.273 201.834,155.402 202.188,153.465 202.432 C 151.529 202.677,148.779 203.017,147.354 203.189 C 145.930 203.361,144.692 203.545,144.604 203.598 C 144.321 203.771,135.732 205.142,131.243 205.731 C 130.396 205.842,129.257 206.035,128.713 206.159 C 128.168 206.283,126.832 206.477,125.743 206.588 C 124.653 206.700,123.320 206.950,122.779 207.143 C 122.238 207.337,120.802 207.596,119.588 207.718 C 118.375 207.840,116.095 208.131,114.521 208.365 C 112.948 208.598,110.374 208.941,108.801 209.126 C 105.148 209.556,101.885 210.049,99.188 210.581 C 98.015 210.812,96.693 211.001,96.251 211.001 C 95.809 211.001,94.937 211.144,94.313 211.318 C 93.690 211.492,92.041 211.792,90.649 211.984 C 83.816 212.926,79.104 213.631,77.118 214.009 C 70.725 215.225,70.339 215.004,65.040 207.085 C 63.283 204.459,61.287 201.518,60.606 200.550 C 59.924 199.582,59.053 198.296,58.671 197.692 C 57.928 196.519,57.564 195.976,52.386 188.339 C 50.540 185.616,48.093 182.002,46.948 180.308 C 45.803 178.614,43.575 175.347,41.997 173.047 C 40.420 170.748,38.468 167.847,37.661 166.602 C 34.483 161.696,28.622 152.931,27.381 151.230 C 26.079 149.445,21.111 141.997,18.592 138.055 C 17.866 136.919,16.917 135.466,16.482 134.827 C 16.048 134.187,14.615 132.030,13.296 130.033 C 11.978 128.036,10.109 125.314,9.143 123.982 C 3.713 116.502,3.721 116.623,8.257 109.571 C 8.996 108.421,10.275 106.342,11.100 104.950 C 13.390 101.083,16.949 95.317,20.947 88.999 C 22.937 85.853,24.996 82.536,25.521 81.628 C 26.046 80.721,27.055 79.113,27.763 78.056 C 28.471 76.998,30.668 73.434,32.646 70.135 C 34.623 66.836,37.362 62.354,38.733 60.176 C 42.447 54.276,45.481 49.323,48.842 43.674 C 52.500 37.525,53.136 36.491,55.356 33.082 C 56.313 31.613,57.541 29.596,58.086 28.600 C 61.519 22.324,63.336 20.645,67.130 20.248 C 68.146 20.142,69.818 19.904,70.847 19.720 C 71.876 19.536,74.153 19.182,75.908 18.934 C 77.662 18.686,80.831 18.226,82.948 17.912 C 85.066 17.598,87.492 17.259,88.339 17.157 C 89.186 17.056,90.622 16.770,91.529 16.522 C 92.437 16.273,94.318 15.916,95.710 15.728 C 98.110 15.404,101.541 14.887,105.941 14.186 C 107.030 14.012,108.663 13.771,109.571 13.649 C 110.479 13.527,111.707 13.277,112.301 13.094 C 112.895 12.911,113.805 12.761,114.322 12.761 C 115.569 12.761,119.175 12.188,121.232 11.664 C 122.140 11.432,123.922 11.138,125.193 11.011 C 126.463 10.884,128.295 10.636,129.263 10.461 C 130.231 10.285,132.112 9.986,133.443 9.796 C 134.774 9.606,137.052 9.257,138.504 9.020 C 144.163 8.097,145.603 7.876,147.195 7.687 C 148.102 7.578,150.182 7.283,151.815 7.031 C 156.753 6.267,160.280 5.739,165.017 5.054 C 167.497 4.695,169.824 4.311,170.187 4.200 C 171.306 3.858,172.987 3.943,173.973 4.390 M223.762 9.472 C 225.154 9.598,227.134 9.842,228.163 10.014 C 229.191 10.185,231.568 10.478,233.443 10.663 C 235.319 10.849,238.487 11.203,240.484 11.450 C 242.481 11.697,245.116 11.988,246.340 12.095 C 247.564 12.203,249.743 12.487,251.181 12.725 C 253.842 13.167,256.115 13.436,260.836 13.865 C 262.288 13.997,264.763 14.247,266.337 14.421 C 267.910 14.594,270.831 14.893,272.827 15.085 C 274.824 15.277,277.200 15.568,278.108 15.731 C 279.015 15.895,280.996 16.141,282.508 16.278 C 285.727 16.570,290.207 17.057,293.619 17.486 C 294.950 17.653,296.980 17.849,298.130 17.921 C 301.524 18.134,309.878 19.031,316.722 19.918 C 318.053 20.091,320.429 20.335,322.002 20.462 C 327.830 20.930,329.046 21.242,330.273 22.587 C 331.200 23.604,334.896 28.692,337.360 32.343 C 338.298 33.735,339.516 35.517,340.065 36.304 C 340.614 37.090,342.294 39.523,343.799 41.709 C 345.304 43.895,347.111 46.370,347.815 47.209 C 349.184 48.841,351.006 51.316,353.959 55.556 C 357.624 60.816,364.423 70.375,365.482 71.755 C 366.086 72.543,369.527 77.472,373.157 82.751 C 374.186 84.246,375.879 86.611,376.920 88.005 C 378.996 90.785,382.491 95.707,384.345 98.460 C 386.085 101.044,387.753 103.402,389.986 106.430 C 395.786 114.296,395.722 113.921,392.279 119.752 C 391.867 120.450,390.311 123.071,388.823 125.575 C 387.335 128.079,385.710 130.874,385.214 131.786 C 383.991 134.029,382.047 137.435,379.871 141.144 C 378.878 142.838,377.145 145.809,376.021 147.745 C 374.897 149.681,373.016 152.899,371.840 154.895 C 370.665 156.892,369.126 159.565,368.422 160.836 C 367.717 162.107,366.632 163.988,366.010 165.017 C 365.388 166.045,364.496 167.580,364.027 168.427 C 363.558 169.274,362.725 170.660,362.176 171.507 C 361.626 172.354,360.719 173.889,360.161 174.917 C 358.991 177.071,357.697 179.337,356.204 181.848 C 355.028 183.827,350.398 191.887,346.536 198.680 C 345.125 201.161,343.526 203.933,342.981 204.840 C 342.436 205.748,341.305 207.716,340.467 209.215 C 337.122 215.196,335.926 215.751,328.761 214.650 C 325.211 214.104,324.403 214.016,314.411 213.088 C 311.205 212.790,306.700 212.353,304.400 212.116 C 302.101 211.879,299.032 211.578,297.580 211.447 C 296.128 211.316,294.048 211.115,292.959 211.002 C 291.870 210.888,289.840 210.690,288.449 210.561 C 287.057 210.432,284.879 210.181,283.608 210.005 C 281.519 209.714,278.269 209.312,273.707 208.778 C 272.800 208.672,270.523 208.485,268.647 208.364 C 266.771 208.242,264.444 208.044,263.476 207.924 C 262.508 207.804,260.677 207.606,259.406 207.485 C 258.135 207.363,255.413 207.061,253.355 206.814 C 251.298 206.566,248.625 206.271,247.415 206.158 C 243.633 205.806,238.848 205.262,238.504 205.145 C 238.095 205.005,234.989 204.708,229.783 204.309 C 224.201 203.881,222.903 203.143,220.299 198.917 C 219.734 198.000,217.776 195.220,215.949 192.739 C 207.394 181.126,207.690 181.857,209.957 177.970 C 210.619 176.836,211.538 175.180,212.000 174.290 C 213.449 171.498,214.577 171.419,216.224 173.994 C 216.664 174.684,218.231 176.881,219.705 178.878 C 221.178 180.875,222.860 183.331,223.441 184.337 C 225.716 188.274,226.695 188.021,229.364 182.809 C 230.868 179.871,232.058 177.781,234.232 174.257 C 235.680 171.910,238.201 167.561,239.781 164.686 C 240.446 163.476,241.326 161.942,241.738 161.276 C 243.393 158.602,245.991 154.184,247.568 151.363 C 248.486 149.722,250.071 147.000,251.090 145.312 C 252.110 143.625,253.422 141.403,254.006 140.374 C 255.626 137.520,257.427 134.390,259.198 131.353 C 260.079 129.840,261.313 127.662,261.939 126.513 C 263.813 123.072,265.539 120.349,266.886 118.709 C 267.584 117.858,268.379 116.716,268.653 116.172 C 269.368 114.745,273.168 108.191,274.329 106.381 C 277.187 101.925,277.275 102.179,269.469 92.328 C 268.714 91.376,267.566 89.841,266.917 88.918 C 266.269 87.994,264.778 85.952,263.605 84.378 C 260.273 79.911,258.070 76.868,256.436 74.477 C 255.610 73.267,254.331 71.476,253.594 70.497 C 252.858 69.518,251.381 67.488,250.313 65.987 C 249.245 64.485,247.531 62.118,246.504 60.726 C 245.478 59.334,243.734 56.909,242.630 55.336 C 241.526 53.762,239.693 51.238,238.556 49.725 C 237.420 48.212,236.007 46.331,235.416 45.545 C 229.420 37.559,224.586 30.822,223.417 28.823 C 221.183 25.002,219.900 25.125,217.686 29.373 C 216.992 30.704,215.419 33.476,214.190 35.534 C 212.961 37.591,211.329 40.413,210.564 41.804 C 209.798 43.196,208.708 45.127,208.142 46.095 C 207.035 47.985,203.357 54.354,201.916 56.876 C 201.431 57.723,200.289 59.604,199.377 61.056 C 198.465 62.508,197.160 64.686,196.476 65.897 C 194.393 69.585,190.893 75.656,189.310 78.328 C 188.485 79.719,187.252 81.848,186.571 83.058 C 184.799 86.203,180.434 93.767,179.269 95.710 C 178.247 97.414,176.834 99.884,175.239 102.750 C 174.735 103.658,173.713 105.327,172.969 106.460 C 170.881 109.640,171.190 110.602,176.441 117.268 C 177.157 118.177,178.767 120.457,180.018 122.332 C 181.269 124.208,183.756 127.801,185.545 130.317 C 189.905 136.450,189.881 136.350,187.778 139.830 C 187.118 140.922,186.157 142.654,185.643 143.678 C 184.223 146.507,182.936 146.707,181.715 144.289 C 180.891 142.655,179.714 140.868,176.675 136.634 C 171.045 128.788,168.321 124.965,167.271 123.432 C 166.649 122.525,164.922 120.010,163.433 117.843 C 157.781 109.618,157.825 110.433,162.572 102.244 C 165.270 97.590,166.284 95.787,167.499 93.484 C 168.049 92.442,168.960 90.915,169.525 90.090 C 170.089 89.266,170.943 87.841,171.422 86.925 C 171.902 86.008,172.649 84.664,173.084 83.938 C 174.313 81.885,176.509 78.156,177.488 76.458 C 177.977 75.611,179.442 73.086,180.745 70.847 C 182.047 68.608,183.706 65.737,184.431 64.466 C 185.156 63.196,186.443 60.968,187.290 59.516 C 188.137 58.064,189.230 56.183,189.720 55.336 C 190.209 54.488,191.062 53.053,191.614 52.145 C 192.167 51.238,193.380 49.109,194.310 47.415 C 195.240 45.721,196.510 43.493,197.134 42.464 C 199.761 38.127,201.884 34.562,202.635 33.223 C 204.059 30.688,205.553 28.094,206.563 26.403 C 207.106 25.495,208.213 23.614,209.024 22.222 C 209.834 20.831,210.894 19.048,211.379 18.261 C 211.863 17.474,212.575 16.206,212.960 15.443 C 213.633 14.110,215.291 11.469,215.886 10.781 C 217.183 9.282,218.768 9.019,223.762 9.472 M155.556 17.608 C 153.855 18.102,152.251 18.339,146.535 18.940 C 141.832 19.435,138.485 19.963,134.769 20.794 C 133.435 21.093,131.428 21.431,130.309 21.546 C 129.190 21.661,128.182 21.812,128.069 21.882 C 127.957 21.952,125.258 22.348,122.073 22.764 C 118.888 23.179,115.490 23.666,114.521 23.847 C 113.553 24.027,111.623 24.341,110.231 24.544 C 108.839 24.746,107.156 25.046,106.491 25.209 C 104.953 25.585,98.800 26.536,94.437 27.072 C 92.588 27.300,90.989 27.538,90.885 27.603 C 90.780 27.668,89.917 27.823,88.966 27.947 C 86.927 28.214,84.087 28.695,81.188 29.266 C 77.620 29.970,74.092 30.557,72.787 30.665 C 70.110 30.886,68.817 32.350,63.914 40.704 C 62.056 43.869,55.631 54.427,55.036 55.292 C 54.078 56.684,50.292 62.716,49.071 64.796 C 48.502 65.765,47.494 67.398,46.830 68.427 C 46.166 69.455,44.947 71.436,44.120 72.827 C 43.293 74.219,42.056 76.249,41.372 77.338 C 38.408 82.054,36.937 84.493,36.046 86.164 C 34.943 88.232,28.035 98.915,24.125 104.599 C 23.198 105.947,23.088 106.230,23.147 107.127 C 23.255 108.789,23.793 108.908,27.368 108.059 C 28.955 107.682,30.946 107.275,31.793 107.155 C 32.640 107.036,34.769 106.698,36.524 106.405 C 38.278 106.113,40.952 105.706,42.464 105.502 C 43.977 105.298,46.403 104.885,47.855 104.585 C 49.307 104.284,51.337 103.904,52.365 103.740 C 53.394 103.576,56.018 103.097,58.196 102.676 C 62.763 101.792,65.167 101.404,70.077 100.756 C 72.013 100.501,74.191 100.159,74.917 99.997 C 75.644 99.836,76.881 99.635,77.668 99.552 C 78.454 99.468,79.789 99.213,80.634 98.985 C 81.478 98.757,82.549 98.570,83.014 98.570 C 83.479 98.570,84.817 98.329,85.989 98.034 C 87.160 97.739,89.752 97.245,91.749 96.936 C 93.746 96.627,96.865 96.124,98.680 95.818 C 100.495 95.513,103.020 95.118,104.290 94.940 C 108.224 94.392,110.535 93.923,111.178 93.544 C 112.001 93.059,115.928 87.339,119.721 81.100 C 121.233 78.614,126.003 71.303,127.344 69.417 C 127.688 68.933,128.504 67.646,129.157 66.557 C 129.809 65.468,131.262 63.166,132.385 61.442 C 133.507 59.719,135.834 55.956,137.554 53.082 C 139.275 50.207,141.781 46.172,143.124 44.114 C 144.468 42.057,146.098 39.483,146.748 38.394 C 147.398 37.305,148.730 35.297,149.708 33.931 C 150.685 32.566,151.775 30.982,152.129 30.411 C 153.400 28.362,157.800 21.870,158.648 20.792 C 160.738 18.135,159.199 16.551,155.556 17.608 M233.953 21.564 C 232.536 22.134,232.844 23.731,234.789 25.907 C 235.520 26.724,236.729 28.297,237.476 29.402 C 239.187 31.933,242.802 37.002,244.439 39.164 C 245.125 40.072,246.291 41.705,247.028 42.794 C 248.321 44.704,249.185 45.880,253.268 51.288 C 255.201 53.847,257.731 57.365,262.816 64.563 C 264.389 66.789,266.683 69.881,267.912 71.434 C 269.142 72.987,270.717 75.050,271.413 76.018 C 272.109 76.986,273.254 78.570,273.957 79.538 C 278.548 85.853,280.539 88.641,282.051 90.869 C 286.091 96.823,285.509 96.574,298.020 97.695 C 299.472 97.825,302.640 98.179,305.061 98.482 C 307.481 98.784,310.748 99.174,312.321 99.349 C 321.042 100.314,327.071 101.052,332.123 101.771 C 333.212 101.926,335.391 102.211,336.964 102.404 C 338.537 102.598,340.814 102.897,342.024 103.069 C 344.190 103.378,346.046 103.591,350.825 104.080 C 352.156 104.216,354.582 104.511,356.216 104.734 C 357.849 104.958,360.176 105.247,361.386 105.377 C 369.388 106.233,371.124 106.483,372.165 106.930 C 376.161 108.643,377.009 106.123,373.730 102.276 C 372.273 100.566,368.882 95.896,366.567 92.409 C 365.803 91.260,364.526 89.477,363.730 88.449 C 361.128 85.089,359.189 82.445,357.301 79.687 C 352.234 72.282,350.894 70.344,349.438 68.317 C 348.569 67.107,347.444 65.523,346.938 64.796 C 346.432 64.070,344.766 61.793,343.235 59.736 C 341.704 57.679,339.997 55.303,339.441 54.455 C 338.885 53.608,337.853 52.111,337.147 51.127 C 336.441 50.144,334.586 47.520,333.024 45.297 C 331.461 43.073,329.522 40.363,328.713 39.274 C 327.903 38.185,326.588 36.344,325.790 35.183 C 323.228 31.456,323.114 31.402,316.942 31.019 C 314.642 30.876,312.712 30.729,312.651 30.692 C 312.591 30.656,311.551 30.511,310.341 30.372 C 309.131 30.233,307.299 29.979,306.271 29.807 C 305.242 29.636,303.014 29.394,301.320 29.269 C 295.705 28.854,292.764 28.580,290.539 28.265 C 289.329 28.094,286.989 27.801,285.338 27.616 C 283.688 27.430,281.559 27.174,280.608 27.047 C 279.656 26.920,277.987 26.729,276.898 26.622 C 275.809 26.516,273.729 26.282,272.277 26.104 C 270.825 25.925,267.558 25.620,265.017 25.427 C 262.475 25.233,259.257 24.966,257.866 24.834 C 256.474 24.701,254.543 24.519,253.575 24.430 C 252.607 24.340,250.825 24.059,249.615 23.805 C 247.595 23.381,245.827 23.117,240.374 22.426 C 239.285 22.288,237.602 21.988,236.634 21.760 C 234.666 21.296,234.624 21.293,233.953 21.564 M108.031 105.297 C 106.518 105.598,104.142 106.096,102.750 106.403 C 100.268 106.952,93.637 108.032,90.037 108.474 C 89.035 108.597,86.362 109.036,84.097 109.451 C 81.831 109.865,78.740 110.412,77.228 110.666 C 75.715 110.920,73.091 111.420,71.397 111.777 C 69.703 112.135,67.673 112.483,66.887 112.550 C 66.100 112.618,64.664 112.810,63.696 112.977 C 59.501 113.703,56.494 114.197,54.235 114.532 C 52.904 114.729,51.320 114.985,50.715 115.102 C 50.110 115.218,48.278 115.504,46.645 115.737 C 45.011 115.971,43.133 116.312,42.471 116.497 C 41.810 116.681,40.807 116.832,40.244 116.832 C 39.680 116.832,38.836 116.966,38.366 117.130 C 37.897 117.294,36.870 117.496,36.084 117.580 C 35.297 117.665,33.960 117.918,33.113 118.144 C 32.266 118.369,31.078 118.615,30.473 118.690 C 29.868 118.765,28.432 118.971,27.283 119.148 C 26.133 119.324,24.510 119.528,23.677 119.601 C 20.502 119.879,20.281 121.788,23.042 125.083 C 23.651 125.809,26.569 130.017,29.527 134.433 C 32.486 138.850,35.542 143.385,36.320 144.509 C 37.098 145.634,38.427 147.638,39.274 148.962 C 40.873 151.461,52.764 169.142,58.654 177.778 C 62.439 183.327,63.841 185.430,64.776 186.962 C 65.432 188.037,70.038 195.077,72.011 198.020 C 75.454 203.158,76.462 203.656,80.748 202.343 C 81.777 202.027,83.806 201.620,85.259 201.437 C 86.711 201.254,89.186 200.911,90.759 200.674 C 95.164 200.012,99.525 199.385,102.310 199.013 C 104.655 198.700,106.793 198.345,111.551 197.480 C 112.580 197.292,113.718 197.140,114.081 197.141 C 114.444 197.142,115.732 196.998,116.942 196.820 C 120.248 196.336,124.463 195.775,126.083 195.604 C 126.876 195.521,128.163 195.295,128.944 195.102 C 130.925 194.613,133.610 194.097,135.426 193.857 C 136.272 193.745,138.343 193.446,140.029 193.192 C 141.715 192.939,144.933 192.537,147.180 192.301 C 149.427 192.064,151.958 191.721,152.805 191.539 C 153.652 191.356,154.741 191.204,155.226 191.200 C 155.710 191.196,156.703 191.052,157.434 190.879 C 159.864 190.306,163.010 189.879,164.801 189.879 C 168.989 189.879,169.591 188.220,166.701 184.641 C 165.946 183.706,164.547 181.804,163.592 180.414 C 160.021 175.217,155.260 168.163,154.486 166.925 C 154.046 166.220,152.296 163.497,150.599 160.874 C 148.901 158.252,147.119 155.498,146.638 154.755 C 145.135 152.431,140.920 146.229,139.460 144.193 C 138.691 143.121,137.291 141.106,136.349 139.714 C 135.407 138.322,133.406 135.402,131.903 133.223 C 126.967 126.069,126.663 125.595,125.377 123.051 C 124.677 121.665,123.617 119.872,123.022 119.067 C 122.427 118.261,121.224 116.414,120.349 114.961 C 119.474 113.509,118.192 111.529,117.501 110.561 C 116.809 109.593,115.848 108.207,115.365 107.481 C 113.587 104.812,112.338 104.439,108.031 105.297 M287.493 107.692 C 286.258 108.132,285.800 108.660,284.375 111.283 C 283.670 112.580,282.590 114.399,281.975 115.325 C 281.361 116.251,280.428 117.786,279.901 118.735 C 279.375 119.685,278.298 121.601,277.508 122.992 C 276.718 124.384,275.281 126.958,274.314 128.713 C 273.348 130.468,272.382 132.151,272.169 132.453 C 271.956 132.756,271.285 133.993,270.679 135.204 C 270.072 136.414,268.708 138.839,267.646 140.594 C 266.585 142.349,265.031 144.972,264.194 146.425 C 262.656 149.093,261.890 150.269,259.611 153.465 C 258.921 154.433,257.884 156.067,257.307 157.096 C 254.744 161.664,252.646 165.243,251.695 166.667 C 251.130 167.514,250.392 168.751,250.056 169.417 C 249.721 170.083,249.176 171.023,248.847 171.507 C 248.518 171.991,247.480 173.724,246.541 175.358 C 240.685 185.545,239.212 188.063,238.299 189.439 C 235.767 193.256,236.361 194.363,241.045 194.560 C 242.733 194.631,244.857 194.791,245.765 194.916 C 248.371 195.273,252.917 195.794,255.556 196.038 C 256.887 196.162,258.669 196.360,259.516 196.478 C 260.965 196.682,261.910 196.779,268.207 197.369 C 269.598 197.500,273.064 197.847,275.908 198.142 C 278.751 198.436,282.068 198.778,283.278 198.902 C 284.488 199.025,286.276 199.224,287.250 199.343 C 288.225 199.462,289.443 199.560,289.958 199.560 C 290.473 199.560,291.557 199.655,292.367 199.772 C 293.177 199.889,294.780 200.090,295.930 200.220 C 297.079 200.350,298.861 200.553,299.890 200.671 C 300.919 200.789,304.433 201.139,307.701 201.449 C 310.968 201.758,314.532 202.099,315.622 202.205 C 316.711 202.310,319.136 202.503,321.012 202.632 C 322.888 202.761,325.319 203.029,326.415 203.226 C 329.574 203.795,331.108 203.091,332.552 200.408 C 332.901 199.760,334.339 197.299,335.747 194.939 C 337.155 192.580,338.985 189.411,339.814 187.899 C 340.644 186.386,341.687 184.554,342.133 183.828 C 342.580 183.102,343.870 180.875,345.001 178.878 C 346.897 175.531,348.279 173.159,351.925 166.997 C 352.677 165.726,353.564 164.150,353.897 163.493 C 354.229 162.837,355.363 160.857,356.417 159.093 C 357.470 157.329,359.409 154.004,360.724 151.705 C 362.040 149.406,363.532 146.881,364.040 146.095 C 364.549 145.308,365.856 143.080,366.946 141.144 C 373.507 129.488,376.549 124.268,377.668 122.748 C 379.970 119.622,379.399 118.325,375.597 118.047 C 374.557 117.971,372.519 117.761,371.067 117.580 C 369.615 117.399,367.115 117.110,365.511 116.938 C 361.673 116.526,357.483 116.008,354.895 115.626 C 353.746 115.456,351.815 115.255,350.605 115.178 C 349.395 115.102,347.662 114.907,346.755 114.744 C 345.847 114.581,344.015 114.332,342.684 114.190 C 341.353 114.049,338.828 113.737,337.074 113.497 C 333.379 112.993,322.992 111.669,319.142 111.211 C 317.690 111.039,315.165 110.793,313.531 110.664 C 311.898 110.536,309.769 110.289,308.801 110.117 C 304.906 109.421,301.093 108.900,296.700 108.463 C 294.158 108.210,291.301 107.861,290.350 107.687 C 288.314 107.315,288.551 107.314,287.493 107.692 " stroke="none" fill="#344a9f" fill-rule="evenodd"></path></g></svg>